<svg xmlns="http://www.w3.org/2000/svg" viewBox="0 0 2814.37 703.11"><defs><style>.cls-1{fill:#06446d;}.cls-2{fill:#0f8ec3;}.cls-3{fill:#ffae00;}</style></defs><g id="katman_2" data-name="katman 2"><g id="Layer_1" data-name="Layer 1"><path class="cls-1" d="M901.41,358v44.21H717.09V164.19H897V208.4H771.84v51.69H882.37v42.85H771.84V358Z"/><path class="cls-1" d="M945.28,164.19h108.15c77.88,0,131.27,46.93,131.27,119s-53.39,119-131.27,119H945.28ZM1050.71,357c47.27,0,78.22-28.23,78.22-73.8s-31-73.8-78.22-73.8h-50.34V357Z"/><path class="cls-1" d="M1224.14,297.5V164.19h55.1V295.46c0,45.23,19.72,63.94,53,63.94,33.67,0,53.06-18.71,53.06-63.94V164.19h54.41V297.5c0,70.06-40.13,108.83-107.81,108.83S1224.14,367.56,1224.14,297.5Z"/><path class="cls-1" d="M1479.2,283.22c0-71.76,55.1-123.12,129.24-123.12,41.15,0,75.5,15,97.94,42.18L1671,234.92c-16-18.36-36-27.88-59.85-27.88-44.55,0-76.18,31.28-76.18,76.18s31.63,76.18,76.18,76.18c23.81,0,43.87-9.53,59.85-28.23l35.37,32.65c-22.44,27.54-56.79,42.51-98.28,42.51C1534.3,406.33,1479.2,355,1479.2,283.22Z"/><path class="cls-1" d="M1895.47,351.23H1784.94l-21.09,51H1707.4l106.11-238.06h54.41l106.45,238.06h-57.82Zm-17.35-41.83-37.75-91.14-37.75,91.14Z"/><path class="cls-1" d="M2036.6,209.08h-76.18V164.19h207.46v44.89H2091.7V402.25h-55.1Z"/><path class="cls-1" d="M2197.46,164.19h55.09V402.25h-55.09Z"/><path class="cls-1" d="M2294,283.22c0-70.74,55.09-123.12,130.25-123.12,74.82,0,130.26,52,130.26,123.12s-55.44,123.11-130.26,123.11C2349.13,406.33,2294,354,2294,283.22Zm204.73,0c0-45.24-32-76.18-74.48-76.18s-74.48,30.94-74.48,76.18,32,76.18,74.48,76.18S2498.77,328.45,2498.77,283.22Z"/><path class="cls-1" d="M2814.37,164.19V402.25h-45.23L2650.45,257.71V402.25H2596V164.19h45.57L2760,308.72V164.19Z"/><path class="cls-2" d="M617,307.06v2.85l-67.31-4.41a238.41,238.41,0,0,0-24.8-94.79l63.52-33.08A305.45,305.45,0,0,1,617,307.06Z"/><path class="cls-2" d="M573.88,150.11l-64.62,33.66a241.57,241.57,0,0,0-67-66.62l39.31-64.77A309.84,309.84,0,0,1,573.88,150.11Z"/><path class="cls-2" d="M455,36.24l-39.66,65.41a237.69,237.69,0,0,0-89.2-24V.09A305,305,0,0,1,455,36.24Z"/><path class="cls-2" d="M295,0V77.58a238.07,238.07,0,0,0-89.64,23.35L165.65,35.48A305.32,305.32,0,0,1,295,0Z"/><path class="cls-2" d="M178.24,116.28A242.4,242.4,0,0,0,110.44,183L45.8,149.38A309.5,309.5,0,0,1,139,51.51Z"/><path class="cls-2" d="M94.68,209.92a238.94,238.94,0,0,0-25.17,95.71L2.19,310v-3a305.53,305.53,0,0,1,29-130.2Z"/><polygon class="cls-3" points="364.75 671.58 309.62 703.11 2.19 527.26 0 526.01 0 462.87 2.19 464.12 309.62 639.97 309.82 639.86 312.74 641.54 364.75 671.58"/><polygon class="cls-3" points="619.22 462.87 619.22 526.01 617.03 527.26 474.75 608.65 419.85 576.91 617.03 464.12 619.22 462.87"/><polygon class="cls-3" points="619.22 364.15 619.22 427.3 617.03 428.55 388.91 559.03 333.98 527.29 617.03 365.4 619.22 364.15"/><polygon class="cls-3" points="450.54 622.51 419.8 640.1 395.49 654 340.56 622.27 309.62 604.38 309.05 604.05 240.69 564.96 2.19 428.53 0 427.28 0 364.13 2.19 365.38 268.09 517.49 289.03 529.46 289.17 529.24 309.78 541.14 364.68 572.89 395.62 590.76 450.54 622.51"/><path class="cls-2" d="M517.83,282.26h0a44.48,44.48,0,0,0-20.25-38.39c-1.35-.88-3.25-2.06-5.66-3.51-18.15-11-65-37.68-119.31-68.59-16.74-9.52-32.54-18.52-37.21-21.24a51.35,51.35,0,0,0-22.15-6.9l-3.46-.28-3.44.28a51.31,51.31,0,0,0-22.15,6.9c-4.67,2.72-20.47,11.72-37.21,21.24-54.35,30.91-101.16,57.6-119.31,68.59-2.41,1.45-4.31,2.63-5.66,3.51a44.48,44.48,0,0,0-20.25,38.39h0A44.49,44.49,0,0,0,122,320.65c1.35.88,3.25,2.06,5.66,3.51,18.15,11,65,37.68,119.31,68.59,16.74,9.52,32.54,18.52,37.21,21.24a51.45,51.45,0,0,0,22.15,6.9l3.44.27,3.46-.27A51.49,51.49,0,0,0,335.4,414c4.67-2.72,20.47-11.72,37.21-21.24,35.07-19.95,67-38.13,90.12-51.48v38.19H456.6v38.45l13.83-10.59,13.83,10.59V379.46h-6.13V332.33c5.58-3.26,10.24-6,13.79-8.17,2.41-1.45,4.31-2.63,5.66-3.51a44.49,44.49,0,0,0,20.25-38.39ZM364.14,377.87c-17.51,10-32.65,18.59-37.37,21.33a34.5,34.5,0,0,1-14.84,4.64l-2.14.16-2.12-.16a34.5,34.5,0,0,1-14.86-4.64c-4.71-2.74-19.84-11.35-37.37-21.33-36.75-20.91-71.53-40.72-95.24-54.44l-5.19-3-7-4.09-3.39-2-1.87-1.1-5.16-3.08-1.42-.85c-2-1.23-3.67-2.24-4.82-3a26.91,26.91,0,0,1-4.89-4.07,26,26,0,0,1-1.78-2,26.65,26.65,0,0,1-2-2.91,26,26,0,0,1-1.58-3.11,28.15,28.15,0,0,1-1-2.74A27.59,27.59,0,0,1,119,285.7a27,27,0,0,1-.09-3.37h0v-.12a27.37,27.37,0,0,1,42.26-21.86c4.43,2.87,18.93,11.33,37.33,21.93l17.19,9.86c22.54,12.9,47.67,27.21,66.82,38.1l27.27,15.52.05,0,0,0c7.28-4.14,17.07-9.72,27.29-15.52,19.17-10.89,44.28-25.2,66.82-38.1l17.17-9.86c18.4-10.6,32.9-19.06,37.33-21.93a27.35,27.35,0,0,1,30.56.5c-11.66,7.37-38.85,24.42-50.76,31.3-5.29,3.07-11,6.39-17.1,9.86-24.08,13.82-52.85,30.18-75.64,43.14-16.29,9.27-29.54,16.82-35.7,20.37h0c-6.16-3.55-19.43-11.1-35.72-20.37-22.79-13-51.54-29.32-75.63-43.14L194,299.44l-3.84-2.22-.51-.29-3.9-2.24c-1.49-.88-3-1.72-4.37-2.54-14.55-8.4-25.57-14.87-29.52-17.44A10.27,10.27,0,0,0,140.64,292c3.2,2.07,10.54,6.45,20.49,12.24h0c5,2.92,10.72,6.21,16.85,9.75,25.93,14.93,59.84,34.22,85.93,49.06,18.29,10.42,32.76,18.64,37.52,21.41a17.5,17.5,0,0,0,7.56,2.37l.79.05.8-.05a17.63,17.63,0,0,0,7.57-2.37c4.74-2.77,19.21-11,37.52-21.41,26.09-14.84,60-34.13,85.91-49.06,6.15-3.54,11.83-6.83,16.86-9.75,8-4.64,31.21-19.39,41.76-26.11a27.14,27.14,0,0,1,.5,4.11v.15a27.4,27.4,0,0,1-12.44,24c-3.86,2.49-12.84,7.8-25.36,15.07h-.18v.1l-3.35,1.95C435.69,337.15,400.9,357,364.14,377.87Z"/><path class="cls-1" d="M716.09,508.69,721.32,497c6.52,5.23,16.87,8.95,26.87,8.95,12.68,0,18-4.53,18-10.58,0-17.56-48.39-6.05-48.39-36.29,0-13.14,10.47-24.3,32.8-24.3,9.77,0,20,2.56,27.1,7.21L773,453.68a45.23,45.23,0,0,0-22.44-6.39c-12.56,0-17.68,4.88-17.68,11,0,17.32,48.26,6,48.26,35.93,0,13-10.58,24.19-32.91,24.19C735.51,518.46,722.84,514.51,716.09,508.69Z"/><path class="cls-1" d="M854.26,435.89h15.11v68.62h42.57V517.3H854.26Z"/><path class="cls-1" d="M974.74,476.59c0-24.07,18.61-41.86,43.85-41.86s43.85,17.67,43.85,41.86-18.61,41.87-43.85,41.87S974.74,500.67,974.74,476.59Zm72.46,0C1047.2,460,1035,448,1018.59,448S990,460,990,476.59s12.21,28.62,28.61,28.62S1047.2,493.23,1047.2,476.59Z"/><path class="cls-1" d="M1192.23,475.66h14.3v32.45c-8.49,6.86-20.35,10.35-31.87,10.35-25.23,0-43.84-17.56-43.84-41.87s18.61-41.86,44.08-41.86c13.6,0,25,4.53,32.68,13.25l-9.54,9.31a30.21,30.21,0,0,0-22.45-9.31c-17.32,0-29.54,11.75-29.54,28.61,0,16.52,12.22,28.62,29.43,28.62a33,33,0,0,0,16.75-4.19Z"/><path class="cls-1" d="M1337.37,498.46h-40.71l-8,18.84h-15.59l36.64-81.41h14.88l36.76,81.41h-15.82Zm-5-11.86L1317,451l-15.24,35.59Z"/><path class="cls-1" d="M1502.16,435.89V517.3h-12.44l-44.89-55.13V517.3h-15V435.89h12.44L1487.16,491V435.89Z"/><path class="cls-1" d="M1744.77,435.89V517.3h-15.12V482.41h-42.11V517.3h-15.11V435.89h15.11V469.5h42.11V435.89Z"/><path class="cls-1" d="M1885.84,504.62V517.3h-61.06V435.89h59.43v12.68H1839.9v21.16h39.31v12.45H1839.9v22.44Z"/><path class="cls-1" d="M2014.12,517.3l-16.63-23.84a27.56,27.56,0,0,1-3.14.12H1976V517.3h-15.12V435.89h33.5c21.4,0,34.65,10.93,34.65,29,0,12.33-6.28,21.4-17.33,25.7l18.73,26.75Zm-20.47-68.62H1976v32.45h17.68c13.26,0,20.12-6.05,20.12-16.28S2006.91,448.68,1993.65,448.68Z"/><path class="cls-1" d="M2165.07,504.62V517.3H2104V435.89h59.43v12.68h-44.31v21.16h39.31v12.45h-39.31v22.44Z"/></g></g></svg>